# xmcd
#
# Track frame offsets: 
#        150
#        9909
#        31300
#        52513
#        65889
#        80340
#        101196
#        120935
#        140639
#        174055
#        236535
#
# Disc length: 3767 seconds
#
# Revision: 0
# Processed by: cddbd v1.5.2PL0 Copyright (c) Steve Scherf et al.
# Submitted via: ExactAudioCopy v0.99pb5
#
DISCID=7e0eb50b
DTITLE=Ash Grunwald - Live At The Fly By Night 23 October 2009
DYEAR=2010
DGENRE=Blues
TTITLE0=Intro
TTITLE1=Can't You Find A Way
TTITLE2=Skywriter
TTITLE3=Mojo
TTITLE4=Rosie
TTITLE5=Fish Out Of Water
TTITLE6=The Devil Called Me A Liar
TTITLE7=1976 Coaster Van
TTITLE8=Just Be Yourself
TTITLE9=Money/Breakout
TTITLE10=Give Signs/Serious
EXTD=
EXTT0=
EXTT1=
EXTT2=
EXTT3=
EXTT4=
EXTT5=
EXTT6=
EXTT7=
EXTT8=
EXTT9=
EXTT10=
PLAYORDER=
